<svg width="233" height="172" viewBox="0 0 233 172" fill="none" xmlns="http://www.w3.org/2000/svg">
<path d="M188.778 123.107C166.045 110.161 147.045 138.374 118.632 105.467C98.2049 81.8137 42.0849 12.5737 37.1649 8.10699C28.2849 0.0269886 22.8715 4.08033 9.92481 30.8803C4.12481 42.8939 3.15148 51.4001 4.59148 57.6137C6.61814 70.8273 16.3782 83.6538 16.3782 100.8V162.294H28.5248C28.5248 162.294 28.5248 101.84 28.5248 91.0402C28.5248 86.0402 31.4984 83.3205 34.6717 81.8538C50.0183 89.2667 71.3249 101.907 87.1782 135.814C103.258 170.201 124.685 167.961 139.872 167.961C155.045 167.961 228.765 164.694 228.738 151.44C228.698 138.427 212.925 136.867 188.778 123.107Z" stroke="#100F0D" stroke-width="7.55905" stroke-miterlimit="10" stroke-linecap="round" stroke-linejoin="round"/>
<path d="M40.3251 84.7068C31.9385 80.2402 24.7518 77.5606 20.1918 74.6402C15.6185 71.6939 6.92513 67.7069 4.5918 57.6137" stroke="#100F0D" stroke-width="7.55905" stroke-miterlimit="10" stroke-linecap="round" stroke-linejoin="round"/>
</svg>
