<svg width="278" height="537" viewBox="0 0 278 537" fill="none" xmlns="http://www.w3.org/2000/svg">
<path d="M273.812 521.733L264.613 280.547C268.179 277.88 270.392 273.533 270.135 268.747L264.736 168.84C264.585 165.987 262.148 163.8 259.293 163.96L255.164 164.2C248.76 92.9065 241.432 15.0932 241.432 15.0932C241.432 9.38651 236.804 4.74649 231.093 4.74649H192.668C192.541 4.71983 192.411 4.70652 192.271 4.70652H187.064C186.929 4.70652 186.796 4.71983 186.667 4.74649H91.288C91.1613 4.71983 91.028 4.70652 90.892 4.70652H85.6839C85.5493 4.70652 85.416 4.71983 85.288 4.74649H46.8653C41.1546 4.74649 36.5266 9.38651 36.5266 15.0932C36.5266 15.0932 29.196 92.9065 22.792 164.2L18.6626 163.96C15.8106 163.8 13.3733 165.987 13.22 168.84L7.82396 268.747C7.56529 273.533 9.77731 277.88 13.3413 280.547L4.14398 521.733C3.84664 525.533 6.67997 528.853 10.4746 529.146L48.2839 532.493C52.0786 532.786 55.396 529.96 55.696 526.16L87.9839 300.44C96.2493 240.427 119.555 143.307 138.979 143.307C158.4 143.307 181.708 240.427 189.971 300.44L222.263 526.16C222.559 529.96 225.877 532.786 229.671 532.493L267.481 529.146C271.276 528.853 274.111 525.533 273.812 521.733Z" stroke="#100F0D" stroke-width="7.55905" stroke-miterlimit="10" stroke-linecap="round" stroke-linejoin="round"/>
<path d="M37.4226 30.4H241.101" stroke="#100F0D" stroke-width="7.55905" stroke-miterlimit="10" stroke-linecap="round" stroke-linejoin="round"/>
<path d="M143.777 17.2666C143.777 19.8 141.629 21.8666 138.976 21.8666C136.325 21.8666 134.176 19.8 134.176 17.2666C134.176 14.72 136.325 12.6533 138.976 12.6533C141.629 12.6533 143.777 14.72 143.777 17.2666Z" fill="#100F0D"/>
<path d="M143.777 17.2666C143.777 19.8 141.629 21.8666 138.976 21.8666C136.325 21.8666 134.176 19.8 134.176 17.2666C134.176 14.72 136.325 12.6533 138.976 12.6533C141.629 12.6533 143.777 14.72 143.777 17.2666Z" stroke="#100F0D" stroke-width="1.32283" stroke-miterlimit="10" stroke-linecap="round" stroke-linejoin="round"/>
<path d="M253.517 182.68C253.517 185.227 251.369 187.28 248.713 187.28C246.064 187.28 243.916 185.227 243.916 182.68C243.916 180.147 246.064 178.08 248.713 178.08C251.369 178.08 253.517 180.147 253.517 182.68Z" fill="#100F0D"/>
<path d="M253.517 182.68C253.517 185.227 251.369 187.28 248.713 187.28C246.064 187.28 243.916 185.227 243.916 182.68C243.916 180.147 246.064 178.08 248.713 178.08C251.369 178.08 253.517 180.147 253.517 182.68Z" stroke="#100F0D" stroke-width="1.32283" stroke-miterlimit="10" stroke-linecap="round" stroke-linejoin="round"/>
<path d="M149.981 30.9599C149.981 30.9599 149.981 80.1466 149.981 94.9999C149.981 109.867 127.976 112.467 127.976 112.467V11.6133C127.976 11.6133 128.432 4.77329 136.017 4.77329" stroke="#100F0D" stroke-width="7.55905" stroke-miterlimit="10" stroke-linecap="round" stroke-linejoin="round"/>
<path d="M257.111 283.267C264.713 282.853 270.544 276.36 270.135 268.747L264.736 168.84C264.585 165.987 262.148 163.8 259.293 163.96L224.84 165.947C221.989 166.107 219.804 168.533 219.957 171.387L221.708 271.307C222.116 278.907 228.613 284.733 236.216 284.333L257.111 283.267Z" stroke="#100F0D" stroke-width="7.55905" stroke-miterlimit="10" stroke-linecap="round" stroke-linejoin="round"/>
<path d="M222.159 203.173L266.263 200.667" stroke="#100F0D" stroke-width="7.55905" stroke-miterlimit="10" stroke-linecap="round" stroke-linejoin="round"/>
<path d="M24.4387 182.68C24.4387 185.227 26.5894 187.28 29.2427 187.28C31.8934 187.28 34.0401 185.227 34.0401 182.68C34.0401 180.147 31.8934 178.08 29.2427 178.08C26.5894 178.08 24.4387 180.147 24.4387 182.68Z" fill="#100F0D"/>
<path d="M24.4387 182.68C24.4387 185.227 26.5894 187.28 29.2427 187.28C31.8934 187.28 34.0401 185.227 34.0401 182.68C34.0401 180.147 31.8934 178.08 29.2427 178.08C26.5894 178.08 24.4387 180.147 24.4387 182.68Z" stroke="#100F0D" stroke-width="1.32283" stroke-miterlimit="10" stroke-linecap="round" stroke-linejoin="round"/>
<path d="M20.844 283.267C13.2427 282.853 7.41202 276.36 7.82402 268.747L13.22 168.84C13.3734 165.987 15.8107 163.8 18.6627 163.96L53.1147 165.947C55.9667 166.107 58.152 168.533 57.9987 171.387L56.2507 271.307C55.8413 278.907 49.3414 284.733 41.7427 284.333L20.844 283.267Z" stroke="#100F0D" stroke-width="7.55905" stroke-miterlimit="10" stroke-linecap="round" stroke-linejoin="round"/>
<path d="M55.8001 203.173L11.696 200.667" stroke="#100F0D" stroke-width="7.55905" stroke-miterlimit="10" stroke-linecap="round" stroke-linejoin="round"/>
<path d="M80.9946 30.6799C80.9946 30.6799 83.056 87.1332 29.4253 94.9732" stroke="#100F0D" stroke-width="7.55905" stroke-miterlimit="10" stroke-linecap="round" stroke-linejoin="round"/>
<path d="M196.963 30.6799C196.963 30.6799 194.9 87.1332 248.531 94.9732" stroke="#100F0D" stroke-width="7.55905" stroke-miterlimit="10" stroke-linecap="round" stroke-linejoin="round"/>
<path d="M93.9493 6.42662V29.1066" stroke="#100F0D" stroke-width="7.55905" stroke-miterlimit="10" stroke-linecap="round" stroke-linejoin="round"/>
<path d="M184.009 29.1066V6.42662" stroke="#100F0D" stroke-width="7.55905" stroke-miterlimit="10" stroke-linecap="round" stroke-linejoin="round"/>
</svg>
