<svg width="88" height="223" viewBox="0 0 88 223" fill="none" xmlns="http://www.w3.org/2000/svg">
<path d="M66.1493 153.973C65.5133 159.44 60.3933 159.56 60.3933 159.56H22.3573C22.3573 159.56 17.2347 159.44 16.604 153.973" stroke="#100F0D" stroke-width="7.55905" stroke-miterlimit="10" stroke-linecap="round" stroke-linejoin="round"/>
<path d="M83.4093 108.253C83.4093 106.053 81.6253 104.28 79.4266 104.28H77.4719C76.5906 99.7867 74.8946 95.5866 72.5426 91.8533C68.3413 82.96 66.8093 74.4533 66.1493 68.7999C65.5133 63.3333 60.3933 63.2133 60.3933 63.2133H59.0307L59.0012 55.0266V50.2933V39.7999V29.2933V20.1732V3.87999H23.7546V20.1732V29.2933V39.7999V50.2933V55.0266L23.7213 63.2133H22.3572C22.3572 63.2133 17.2346 63.3333 16.604 68.7999C15.9426 74.4399 14.4092 82.9599 10.2132 91.8399C6.6532 97.5066 4.58521 104.2 4.58521 111.387C4.58521 118.573 6.6532 125.267 10.2132 130.933C14.4092 139.8 15.9426 148.32 16.604 153.973C17.2346 159.44 22.3572 159.56 22.3572 159.56H23.7213L23.7546 169.187V172.48V182.973V193.467V203.973V218.88H59.0012V203.973V193.467V182.973V172.48V169.187L59.0307 159.56H60.3933C60.3933 159.56 65.5133 159.44 66.1493 153.973C66.8093 148.32 68.3413 139.8 72.5426 130.92C74.8946 127.173 76.5906 122.987 77.4719 118.493H79.4266C81.6253 118.493 83.4093 116.707 83.4093 114.507V108.253Z" stroke="#100F0D" stroke-width="7.55905" stroke-miterlimit="10" stroke-linecap="round" stroke-linejoin="round"/>
<path d="M66.1493 68.7999C65.5133 63.3333 60.3933 63.2133 60.3933 63.2133H22.3573C22.3573 63.2133 17.2347 63.3333 16.604 68.7999" stroke="#100F0D" stroke-width="7.55905" stroke-miterlimit="10" stroke-linecap="round" stroke-linejoin="round"/>
<path d="M78.1625 111.387C78.1625 131.707 61.6946 148.173 41.3773 148.173C21.0586 148.173 4.58521 131.707 4.58521 111.387C4.58521 91.0666 21.0586 74.5999 41.3773 74.5999C61.6946 74.5999 78.1625 91.0666 78.1625 111.387Z" stroke="#100F0D" stroke-width="7.55905" stroke-miterlimit="10" stroke-linecap="round" stroke-linejoin="round"/>
<path d="M41.872 113.067C40.94 113.347 39.9641 112.813 39.6867 111.88C39.4147 110.947 39.9453 109.973 40.872 109.693C41.8133 109.413 42.7907 109.947 43.0641 110.88C43.3427 111.813 42.8107 112.8 41.872 113.067Z" fill="#100F0D"/>
<path d="M41.872 113.067C40.94 113.347 39.9641 112.813 39.6867 111.88C39.4147 110.947 39.9453 109.973 40.872 109.693C41.8133 109.413 42.7907 109.947 43.0641 110.88C43.3427 111.813 42.8107 112.8 41.872 113.067Z" stroke="#100F0D" stroke-width="7.55905" stroke-miterlimit="10" stroke-linecap="round" stroke-linejoin="round"/>
<path d="M57.856 106.52L41.3746 111.387L32.4867 102.08" stroke="#100F0D" stroke-width="7.55905" stroke-miterlimit="10" stroke-linecap="round" stroke-linejoin="round"/>
<path d="M43.5213 86.4534C43.5213 87.64 42.56 88.6 41.376 88.6C40.1907 88.6 39.2292 87.64 39.2292 86.4534C39.2292 85.2667 40.1907 84.3066 41.376 84.3066C42.56 84.3066 43.5213 85.2667 43.5213 86.4534Z" fill="#100F0D"/>
<path d="M43.5213 86.4534C43.5213 87.64 42.56 88.6 41.376 88.6C40.1907 88.6 39.2292 87.64 39.2292 86.4534C39.2292 85.2667 40.1907 84.3066 41.376 84.3066C42.56 84.3066 43.5213 85.2667 43.5213 86.4534Z" stroke="#100F0D" stroke-width="3.77953" stroke-miterlimit="10" stroke-linecap="round" stroke-linejoin="round"/>
<path d="M30.764 88.72C31.3573 89.7467 31.0052 91.0534 29.9799 91.6534C28.9532 92.24 27.64 91.8933 27.048 90.8667C26.456 89.84 26.8066 88.52 27.8332 87.9333C28.8599 87.3333 30.172 87.6934 30.764 88.72Z" fill="#100F0D"/>
<path d="M30.764 88.72C31.3573 89.7467 31.0052 91.0534 29.9799 91.6534C28.9532 92.24 27.64 91.8933 27.048 90.8667C26.456 89.84 26.8066 88.52 27.8332 87.9333C28.8599 87.3333 30.172 87.6934 30.764 88.72Z" stroke="#100F0D" stroke-width="3.77953" stroke-miterlimit="10" stroke-linecap="round" stroke-linejoin="round"/>
<path d="M20.8506 97.0533C21.8759 97.6533 22.2292 98.96 21.6358 99.9866C21.0438 101.013 19.7306 101.373 18.7052 100.773C17.6799 100.187 17.3265 98.8665 17.9185 97.8399C18.5119 96.8132 19.8252 96.4666 20.8506 97.0533Z" fill="#100F0D"/>
<path d="M20.8506 97.0533C21.8759 97.6533 22.2292 98.96 21.6358 99.9866C21.0438 101.013 19.7306 101.373 18.7052 100.773C17.6799 100.187 17.3265 98.8665 17.9185 97.8399C18.5119 96.8132 19.8252 96.4666 20.8506 97.0533Z" stroke="#100F0D" stroke-width="3.77953" stroke-miterlimit="10" stroke-linecap="round" stroke-linejoin="round"/>
<path d="M16.4412 109.24C17.6252 109.24 18.588 110.2 18.588 111.387C18.588 112.573 17.6252 113.533 16.4412 113.533C15.2572 113.533 14.2959 112.573 14.2959 111.387C14.2959 110.2 15.2572 109.24 16.4412 109.24Z" fill="#100F0D"/>
<path d="M16.4412 109.24C17.6252 109.24 18.588 110.2 18.588 111.387C18.588 112.573 17.6252 113.533 16.4412 113.533C15.2572 113.533 14.2959 112.573 14.2959 111.387C14.2959 110.2 15.2572 109.24 16.4412 109.24Z" stroke="#100F0D" stroke-width="3.77953" stroke-miterlimit="10" stroke-linecap="round" stroke-linejoin="round"/>
<path d="M51.9852 88.72C51.3932 89.7467 51.7453 91.0534 52.7719 91.6534C53.7973 92.24 55.1105 91.8933 55.7025 90.8667C56.2945 89.84 55.9426 88.52 54.9173 87.9333C53.8906 87.3333 52.5786 87.6934 51.9852 88.72Z" fill="#100F0D"/>
<path d="M51.9852 88.72C51.3932 89.7467 51.7453 91.0534 52.7719 91.6534C53.7973 92.24 55.1105 91.8933 55.7025 90.8667C56.2945 89.84 55.9426 88.52 54.9173 87.9333C53.8906 87.3333 52.5786 87.6934 51.9852 88.72Z" stroke="#100F0D" stroke-width="3.77953" stroke-miterlimit="10" stroke-linecap="round" stroke-linejoin="round"/>
<path d="M61.9 97.0533C60.8746 97.6533 60.5213 98.96 61.1147 99.9866C61.7067 101.013 63.0199 101.373 64.0466 100.773C65.0719 100.187 65.424 98.8665 64.8307 97.8399C64.2387 96.8132 62.9253 96.4666 61.9 97.0533Z" fill="#100F0D"/>
<path d="M61.9 97.0533C60.8746 97.6533 60.5213 98.96 61.1147 99.9866C61.7067 101.013 63.0199 101.373 64.0466 100.773C65.0719 100.187 65.424 98.8665 64.8307 97.8399C64.2387 96.8132 62.9253 96.4666 61.9 97.0533Z" stroke="#100F0D" stroke-width="3.77953" stroke-miterlimit="10" stroke-linecap="round" stroke-linejoin="round"/>
<path d="M66.3079 109.24C65.1239 109.24 64.1626 110.2 64.1626 111.387C64.1626 112.573 65.1239 113.533 66.3079 113.533C67.4932 113.533 68.4547 112.573 68.4547 111.387C68.4547 110.2 67.4932 109.24 66.3079 109.24Z" fill="#100F0D"/>
<path d="M66.3079 109.24C65.1239 109.24 64.1626 110.2 64.1626 111.387C64.1626 112.573 65.1239 113.533 66.3079 113.533C67.4932 113.533 68.4547 112.573 68.4547 111.387C68.4547 110.2 67.4932 109.24 66.3079 109.24Z" stroke="#100F0D" stroke-width="3.77953" stroke-miterlimit="10" stroke-linecap="round" stroke-linejoin="round"/>
<path d="M43.5213 136.32C43.5213 135.133 42.56 134.173 41.376 134.173C40.1907 134.173 39.2292 135.133 39.2292 136.32C39.2292 137.493 40.1907 138.453 41.376 138.453C42.56 138.453 43.5213 137.493 43.5213 136.32Z" fill="#100F0D"/>
<path d="M43.5213 136.32C43.5213 135.133 42.56 134.173 41.376 134.173C40.1907 134.173 39.2292 135.133 39.2292 136.32C39.2292 137.493 40.1907 138.453 41.376 138.453C42.56 138.453 43.5213 137.493 43.5213 136.32Z" stroke="#100F0D" stroke-width="3.77953" stroke-miterlimit="10" stroke-linecap="round" stroke-linejoin="round"/>
<path d="M30.764 134.053C31.3573 133.027 31.0052 131.707 29.9799 131.12C28.9532 130.52 27.64 130.88 27.048 131.907C26.456 132.933 26.8066 134.24 27.8332 134.84C28.8599 135.427 30.172 135.08 30.764 134.053Z" fill="#100F0D"/>
<path d="M30.764 134.053C31.3573 133.027 31.0052 131.707 29.9799 131.12C28.9532 130.52 27.64 130.88 27.048 131.907C26.456 132.933 26.8066 134.24 27.8332 134.84C28.8599 135.427 30.172 135.08 30.764 134.053Z" stroke="#100F0D" stroke-width="3.77953" stroke-miterlimit="10" stroke-linecap="round" stroke-linejoin="round"/>
<path d="M20.8506 125.707C21.8759 125.12 22.2292 123.8 21.6358 122.773C21.0438 121.747 19.7306 121.4 18.7052 121.987C17.6799 122.587 17.3265 123.893 17.9185 124.92C18.5119 125.947 19.8252 126.307 20.8506 125.707Z" fill="#100F0D"/>
<path d="M20.8506 125.707C21.8759 125.12 22.2292 123.8 21.6358 122.773C21.0438 121.747 19.7306 121.4 18.7052 121.987C17.6799 122.587 17.3265 123.893 17.9185 124.92C18.5119 125.947 19.8252 126.307 20.8506 125.707Z" stroke="#100F0D" stroke-width="3.77953" stroke-miterlimit="10" stroke-linecap="round" stroke-linejoin="round"/>
<path d="M51.9852 134.053C51.3932 133.027 51.7453 131.707 52.7719 131.12C53.7973 130.52 55.1105 130.88 55.7025 131.907C56.2945 132.933 55.9426 134.24 54.9173 134.84C53.8906 135.427 52.5786 135.08 51.9852 134.053Z" fill="#100F0D"/>
<path d="M51.9852 134.053C51.3932 133.027 51.7453 131.707 52.7719 131.12C53.7973 130.52 55.1105 130.88 55.7025 131.907C56.2945 132.933 55.9426 134.24 54.9173 134.84C53.8906 135.427 52.5786 135.08 51.9852 134.053Z" stroke="#100F0D" stroke-width="3.77953" stroke-miterlimit="10" stroke-linecap="round" stroke-linejoin="round"/>
<path d="M61.9 125.707C60.8746 125.12 60.5213 123.8 61.1147 122.773C61.7067 121.747 63.0199 121.4 64.0466 121.987C65.0719 122.587 65.424 123.893 64.8307 124.92C64.2387 125.947 62.9253 126.307 61.9 125.707Z" fill="#100F0D"/>
<path d="M61.9 125.707C60.8746 125.12 60.5213 123.8 61.1147 122.773C61.7067 121.747 63.0199 121.4 64.0466 121.987C65.0719 122.587 65.424 123.893 64.8307 124.92C64.2387 125.947 62.9253 126.307 61.9 125.707Z" stroke="#100F0D" stroke-width="3.77953" stroke-miterlimit="10" stroke-linecap="round" stroke-linejoin="round"/>
</svg>
